<svg id="Capa_1" data-name="Capa 1" xmlns="http://www.w3.org/2000/svg" viewBox="0 0 467.23 369.77"><defs><style>.cls-1{fill:none;stroke:#6b7e55;stroke-miterlimit:10;stroke-width:5px;}.cls-2{font-size:93.54px;font-family:Tahoma;}.cls-2,.cls-3{fill:#6b7f55;}</style></defs><path class="cls-1" d="M137.83,289.56c1.21-4.44,2.59-8.81,4.11-13.1" transform="translate(-80.32 -152.76)"/><path class="cls-1" d="M487.54,393.33a182.46,182.46,0,0,1-346.84,1.89" transform="translate(-80.32 -152.76)"/><path class="cls-1" d="M410.41,290.49c-11.39-77.87-50.32-135.23-96.6-135.23s-85.12,57.23-96.56,135" transform="translate(-80.32 -152.76)"/><path class="cls-1" d="M218.54,393.06c12.86,73.64,50.65,127,95.27,127s82.43-53.35,95.28-127" transform="translate(-80.32 -152.76)"/><line class="cls-1" x1="233.5" y1="240.35" x2="233.5" y2="367.27"/><line class="cls-1" x1="233.5" y1="2.5" x2="233.5" y2="137.64"/><path class="cls-1" d="M169.13,226.59h0Z" transform="translate(-80.32 -152.76)"/><line class="cls-1" x1="62.68" y1="249.88" x2="405.28" y2="249.88"/><path class="cls-1" d="M143,402.64" transform="translate(-80.32 -152.76)"/><path class="cls-1" d="M176.4,456.64h0Z" transform="translate(-80.32 -152.76)"/><text class="cls-2" transform="translate(0 226.83) scale(1.14 1)">ESFÉRICA</text><path class="cls-1" d="M141.94,276.46a182.46,182.46,0,0,1,347.94,13.42" transform="translate(-80.32 -152.76)"/><path class="cls-1" d="M141,281.55h0Z" transform="translate(-80.32 -152.76)"/><path class="cls-1" d="M486.23,281.27,141,281.55Z" transform="translate(-80.32 -152.76)"/><line class="cls-3" x1="64.05" y1="249.88" x2="401.95" y2="249.88"/><line class="cls-3" x1="88.81" y1="73.84" x2="378.19" y2="73.84"/><line class="cls-1" x1="90.09" y1="73.7" x2="376.45" y2="73.29"/><line class="cls-1" x1="96.08" y1="303.88" x2="372.09" y2="303.88"/></svg>