<svg id="Capa_1" data-name="Capa 1" xmlns="http://www.w3.org/2000/svg" viewBox="0 0 467.23 369.77"><defs><style>.cls-1{fill:none;stroke:#6b7e55;stroke-miterlimit:10;stroke-width:5px}</style></defs><path class="cls-1" d="M137.83 289.56c1.21-4.44 2.59-8.81 4.11-13.1m345.6 116.87a182.46 182.46 0 01-346.84 1.89m269.71-104.73c-11.39-77.87-50.32-135.23-96.6-135.23s-85.12 57.23-96.56 135" transform="translate(-80.32 -152.76)"/><path class="cls-1" d="M218.54 393.06c12.86 73.64 50.65 127 95.27 127s82.43-53.35 95.28-127" transform="translate(-80.32 -152.76)"/><path class="cls-1" d="M233.5 240.35v126.92m0-364.77v135.14M62.68 249.88h342.6"/><text transform="matrix(1.14 0 0 1 0 226.83)" fill="#6b7f55" font-size="93.54" font-family="Tahoma">ESFÉRICA</text><path class="cls-1" d="M141.94 276.46a182.46 182.46 0 01347.94 13.42M141 281.55zm345.23-.28l-345.23.28z" transform="translate(-80.32 -152.76)"/><path d="M64.05 249.88h337.9M88.81 73.84h289.38" fill="#6b7f55"/><path class="cls-1" d="M90.09 73.7l286.36-.41M96.08 303.88h276.01"/></svg>